<?xml version="1.0" encoding="UTF-8" standalone="no"?>
<!-- Created with Inkscape (http://www.inkscape.org/) -->

<svg
   width="28.029654mm"
   height="20.439156mm"
   viewBox="0 0 28.029654 20.439156"
   version="1.1"
   id="svg1"
   xml:space="preserve"
   inkscape:version="1.4.2 (ebf0e940, 2025-05-08)"
   sodipodi:docname="plat.svg"
   xmlns:inkscape="http://www.inkscape.org/namespaces/inkscape"
   xmlns:sodipodi="http://sodipodi.sourceforge.net/DTD/sodipodi-0.dtd"
   xmlns="http://www.w3.org/2000/svg"
   xmlns:svg="http://www.w3.org/2000/svg"><sodipodi:namedview
     id="namedview1"
     pagecolor="#ffffff"
     bordercolor="#000000"
     borderopacity="0.25"
     inkscape:showpageshadow="2"
     inkscape:pageopacity="0.0"
     inkscape:pagecheckerboard="0"
     inkscape:deskcolor="#d1d1d1"
     inkscape:document-units="mm"
     inkscape:zoom="2.2031205"
     inkscape:cx="194.95075"
     inkscape:cy="45.163213"
     inkscape:window-width="1728"
     inkscape:window-height="1056"
     inkscape:window-x="0"
     inkscape:window-y="33"
     inkscape:window-maximized="1"
     inkscape:current-layer="layer1" /><defs
     id="defs1" /><g
     inkscape:label="Capa 1"
     inkscape:groupmode="layer"
     id="layer1"
     transform="translate(-98.075696,-80.941578)"><g
       inkscape:label="Capa 1"
       id="layer1-8"
       transform="translate(97.98249,74.807142)"><ellipse
         style="fill:none;stroke:#0000aa;stroke-width:2.13116;stroke-dasharray:none;stroke-opacity:1"
         id="path1"
         cx="14.667716"
         cy="16.354013"
         rx="9.5177555"
         ry="9.1539974" /><ellipse
         style="fill:#00aad4;stroke:#000000;stroke-width:0;stroke-dasharray:none;stroke-opacity:1"
         id="path2"
         cx="14.667716"
         cy="16.354019"
         rx="8.0035677"
         ry="7.697679" /></g><path
       id="rect1"
       style="fill:#00aad4;stroke:#0000aa;stroke-width:0.2;stroke-dasharray:none;stroke-opacity:1"
       d="m 125.38566,83.269521 c -0.34331,0 -0.61969,0.364104 -0.61969,0.816376 l -1.13233,6.08412 1.23975,0.749522 -0.10742,7.316874 c 0,0.452274 0.27638,0.816377 0.61969,0.816377 0.34331,0 0.61969,-0.364103 0.61969,-0.816377 V 84.085897 c 0,-0.452272 -0.27638,-0.816376 -0.61969,-0.816376 z"
       sodipodi:nodetypes="sscccssss" /><path
       id="path3"
       style="fill:#00aad4;stroke:#0000aa;stroke-width:0.2;stroke-dasharray:none;stroke-opacity:1"
       d="m 98.533004,84.053784 -0.352433,5.836336 1.204578,0.288355 -0.107487,8.628931 c 0,0.409512 0.226309,0.746561 0.523999,0.806669 0.0639,0.02916 0.132542,0.04496 0.204119,0.04496 0.34331,0 0.62012,-0.363697 0.62012,-0.815971 l -0.10749,-8.62893 1.20407,-0.288872 -0.35192,-5.870959 h -0.51521 v 4.741313 c 0,0.256669 -0.1343,0.46302 -0.30128,0.46302 -0.16697,0 -0.30127,-0.206351 -0.30127,-0.46302 v -4.741313 h -0.491447 v 4.741313 c 0,0.256669 -0.1343,0.46302 -0.301273,0.46302 -0.166974,0 -0.301274,-0.206351 -0.301274,-0.46302 v -4.74183 z" /></g></svg>
